<svg width="71" height="70" viewBox="0 0 71 70" fill="none" xmlns="http://www.w3.org/2000/svg">
<g clip-path="url(#clip0_5_94)">
<path d="M70.365 38.2336C69.7365 31.9119 66.9122 25.9521 62.4122 21.4519C58.5665 17.6064 53.8595 15.1352 48.9067 14.0363V10.5625C50.9296 10.0593 52.4332 8.22817 52.4332 6.05171C52.4332 3.48847 50.348 1.4032 47.7847 1.4032H37.9408C35.3776 1.4032 33.2923 3.48847 33.2923 6.05171C33.2923 8.22803 34.796 10.0591 36.8187 10.5625V14.0461C31.8811 15.1495 27.1896 17.6173 23.3549 21.4521C22.5157 22.2913 21.7419 23.1716 21.0335 24.0866C20.9992 24.084 20.9649 24.0814 20.9299 24.0814H11.187C10.432 24.0814 9.81979 24.6935 9.81979 25.4486C9.81979 26.2037 10.432 26.8158 11.187 26.8158H19.1731C18.1707 28.494 17.3624 30.2565 16.7472 32.0708H1.86715C1.11218 32.0708 0.499939 32.6829 0.499939 33.438C0.499939 34.1931 1.11218 34.8052 1.86715 34.8052H15.9746C15.5805 36.5349 15.3544 38.2951 15.296 40.0603H9.25008C8.4951 40.0603 7.88287 40.6724 7.88287 41.4276C7.88287 42.1827 8.4951 42.7948 9.25008 42.7948H15.3396C15.455 44.5645 15.7395 46.3249 16.1933 48.0499H7.33598C6.58101 48.0499 5.96877 48.662 5.96877 49.4171C5.96877 50.1722 6.58101 50.7843 7.33598 50.7843H17.0659C18.4071 54.3324 20.5032 57.6578 23.3549 60.5095C27.8593 65.014 33.8252 67.8389 40.1535 68.4641C41.0567 68.5532 41.9605 68.5974 42.8632 68.5974C48.1983 68.5974 53.4656 67.0534 57.935 64.1429C58.5678 63.7308 58.7467 62.8838 58.3346 62.2511C57.9226 61.6184 57.0756 61.4394 56.4428 61.8515C46.6595 68.2222 33.5571 66.8448 25.2884 58.576C15.5864 48.8741 15.5864 33.0879 25.2884 23.3857C34.9902 13.6839 50.7764 13.6839 60.4786 23.3857C68.7364 31.6437 70.1214 44.7348 63.7716 54.5134C63.3604 55.1467 63.5404 55.9935 64.1736 56.4046C64.8072 56.8159 65.6537 56.6358 66.0648 56.0025C69.4574 50.7778 70.9846 44.4674 70.365 38.2336ZM36.0267 6.05185C36.0267 4.99636 36.8853 4.13775 37.9408 4.13775H47.7847C48.8402 4.13775 49.6988 4.99636 49.6988 6.05185C49.6988 7.10733 48.8402 7.96594 47.7847 7.96594H47.5394H38.186H37.9408C36.8853 7.96594 36.0267 7.10719 36.0267 6.05185ZM39.5532 13.576V10.7004H46.1722V13.5711C43.9743 13.3097 41.7507 13.3113 39.5532 13.576Z" fill="#F2994A"/>
<path d="M61.446 58.1749C61.085 58.1749 60.7337 58.3212 60.4795 58.5755C60.2239 58.8298 60.0788 59.1825 60.0788 59.5421C60.0788 59.9017 60.2239 60.2544 60.4795 60.5087C60.7337 60.7644 61.0852 60.9093 61.446 60.9093C61.8056 60.9093 62.1569 60.7644 62.4126 60.5087C62.6669 60.2544 62.8132 59.9017 62.8132 59.5421C62.8132 59.1825 62.667 58.8298 62.4126 58.5755C62.1569 58.3212 61.8054 58.1749 61.446 58.1749Z" fill="#F2994A"/>
<path d="M42.8836 19.7712C31.1887 19.7712 21.6742 29.2856 21.6742 40.9806C21.6742 52.6756 31.1887 62.19 42.8836 62.19C54.5784 62.19 64.0929 52.6756 64.0929 40.9806C64.0929 29.2856 54.5784 19.7712 42.8836 19.7712ZM42.8836 59.4556C32.6963 59.4556 24.4086 51.1677 24.4086 40.9806C24.4086 30.7935 32.6963 22.5057 42.8836 22.5057C53.0708 22.5057 61.3585 30.7935 61.3585 40.9806C61.3585 51.1677 53.0708 59.4556 42.8836 59.4556Z" fill="#F2994A"/>
<path d="M51.5319 30.3987L44.7602 37.1704C44.1939 36.8904 43.5569 36.7322 42.8835 36.7322C42.21 36.7322 41.5732 36.8904 41.0069 37.1704L37.9762 34.1397C37.4422 33.6058 36.5767 33.6058 36.0426 34.1397C35.5087 34.6736 35.5087 35.5393 36.0426 36.0732L39.0733 39.1039C38.7931 39.6702 38.6351 40.3071 38.6351 40.9805C38.6351 43.3231 40.5408 45.229 42.8835 45.229C45.2262 45.229 47.132 43.3231 47.132 40.9805C47.132 40.3071 46.9738 39.6702 46.6938 39.1039L53.2668 32.5309L53.4654 32.3322C53.9993 31.7983 53.9993 30.9326 53.4654 30.3987C52.9316 29.8648 52.0661 29.8648 51.5319 30.3987ZM42.8835 42.4947C42.0487 42.4947 41.3695 41.8155 41.3695 40.9806C41.3695 40.1458 42.0487 39.4666 42.8835 39.4666C43.7184 39.4666 44.3976 40.1458 44.3976 40.9806C44.3976 41.8155 43.7184 42.4947 42.8835 42.4947Z" fill="#F2994A"/>
<path d="M57.5016 39.6301H56.2349C55.4799 39.6301 54.8677 40.2422 54.8677 40.9973C54.8677 41.7524 55.4799 42.3645 56.2349 42.3645H57.5016C58.2565 42.3645 58.8688 41.7524 58.8688 40.9973C58.8688 40.2422 58.2565 39.6301 57.5016 39.6301Z" fill="#F2994A"/>
<path d="M29.532 39.5967H28.2655C27.5105 39.5967 26.8983 40.2088 26.8983 40.9639C26.8983 41.719 27.5105 42.3311 28.2655 42.3311H29.532C30.287 42.3311 30.8992 41.719 30.8992 40.9639C30.8992 40.2088 30.287 39.5967 29.532 39.5967Z" fill="#F2994A"/>
<path d="M42.9002 28.9963C43.6552 28.9963 44.2674 28.3842 44.2674 27.6291V26.3625C44.2674 25.6075 43.6552 24.9954 42.9002 24.9954C42.1452 24.9954 41.533 25.6075 41.533 26.3625V27.6291C41.533 28.3842 42.1452 28.9963 42.9002 28.9963Z" fill="#F2994A"/>
<path d="M42.8669 52.965C42.1119 52.965 41.4997 53.5771 41.4997 54.3322V55.5987C41.4997 56.3538 42.1119 56.9659 42.8669 56.9659C43.6218 56.9659 44.234 56.3538 44.234 55.5987V54.3322C44.234 53.5771 43.6218 52.965 42.8669 52.965Z" fill="#F2994A"/>
<path d="M1.86713 48.0493C1.50756 48.0493 1.15482 48.1956 0.900525 48.4499C0.646228 48.7042 0.499939 49.0569 0.499939 49.4165C0.499939 49.7774 0.646091 50.1288 0.900525 50.3831C1.15496 50.6374 1.50756 50.7837 1.86713 50.7837C2.2267 50.7837 2.57943 50.6374 2.83359 50.3831C3.08789 50.1288 3.23431 49.7761 3.23431 49.4165C3.23431 49.0569 3.08802 48.7042 2.83359 48.4499C2.57943 48.1956 2.2267 48.0493 1.86713 48.0493Z" fill="#F2994A"/>
</g>
<defs>
<clipPath id="clip0_5_94">
<rect width="70" height="70" fill="white" transform="translate(0.499939 0.000244141)"/>
</clipPath>
</defs>
</svg>
