<svg width="16" height="16" viewBox="0 0 16 16" fill="none" xmlns="http://www.w3.org/2000/svg">
<path d="M7.99992 1.33331C4.32392 1.33331 1.33325 4.32398 1.33325 7.99998C1.33325 11.676 4.32392 14.6666 7.99992 14.6666C11.6759 14.6666 14.6666 11.676 14.6666 7.99998C14.6666 4.32398 11.6759 1.33331 7.99992 1.33331ZM7.99992 13.3333C5.05925 13.3333 2.66659 10.9406 2.66659 7.99998C2.66659 5.05931 5.05925 2.66665 7.99992 2.66665C10.9406 2.66665 13.3333 5.05931 13.3333 7.99998C13.3333 10.9406 10.9406 13.3333 7.99992 13.3333Z" fill="#919191"/>
<path d="M8.66658 4.66669H7.33325V8.27602L9.52858 10.4714L10.4713 9.52869L8.66658 7.72402V4.66669Z" fill="#919191"/>
</svg>
