<svg width="23" height="23" viewBox="0 0 23 23" fill="none" xmlns="http://www.w3.org/2000/svg">
<g clip-path="url(#clip0_77_5)">
<path d="M11.5001 0C5.14884 0 0.00012207 5.14872 0.00012207 11.5C0.00012207 17.8513 5.14884 23 11.5001 23C17.8514 23 23.0001 17.8513 23.0001 11.5C23.0001 5.14872 17.8514 0 11.5001 0ZM7.36731 4.56799C7.60425 4.55402 7.81842 4.69564 7.98078 4.94701L9.55304 7.92869C9.71858 8.28201 9.62451 8.66032 9.37757 8.91277L8.65742 9.63292C8.61297 9.69383 8.58372 9.76243 8.58301 9.83787C8.85919 10.9069 9.69692 11.893 10.4361 12.5711C11.1752 13.2492 11.9696 14.1673 13.0008 14.3848C13.1283 14.4204 13.2844 14.4331 13.3756 14.3483L14.2123 13.4962C14.5011 13.2773 14.9189 13.1712 15.2272 13.3502H15.2413L18.0783 15.025C18.4948 15.286 18.5379 15.7906 18.2398 16.0975L16.2857 18.0361C15.9971 18.3321 15.6138 18.4316 15.2413 18.432C13.594 18.3827 12.0374 17.5741 10.7589 16.7432C8.66039 15.2166 6.73542 13.323 5.52693 11.0353C5.06344 10.0761 4.51897 8.85207 4.57093 7.78134C4.57557 7.37853 4.68455 6.98391 4.96822 6.72428L6.92232 4.77018C7.07454 4.64065 7.22513 4.57639 7.36731 4.56799Z" fill="#F2994A"/>
</g>
<defs>
<clipPath id="clip0_77_5">
<rect width="23" height="23" fill="white"/>
</clipPath>
</defs>
</svg>
