<svg width="39" height="40" viewBox="0 0 39 40" fill="none" xmlns="http://www.w3.org/2000/svg">
<ellipse cx="19.5" cy="22" rx="16.25" ry="18" fill="white"/>
<path d="M19.5001 0.083252C8.73061 0.083252 0 9.03773 0 20.0834C0 29.99 7.03018 38.1944 16.2479 39.7831V24.2559H11.5439V18.6683H16.2479V14.5483C16.2479 9.76779 19.0947 7.16271 23.2532 7.16271C25.2448 7.16271 26.9564 7.31492 27.4533 7.38196V12.3788L24.5691 12.3803C22.308 12.3803 21.8721 13.482 21.8721 15.0994V18.6655H27.2672L26.5636 24.2531H21.8721V39.9167C31.5202 38.7124 39 30.299 39 20.0776C39 9.03773 30.2694 0.083252 19.5001 0.083252Z" fill="#5956FB"/>
</svg>
