<svg width="28" height="25" viewBox="0 0 28 25" fill="none" xmlns="http://www.w3.org/2000/svg">
<path fill-rule="evenodd" clip-rule="evenodd" d="M13.7231 2.21779C10.5718 2.21779 7.54962 3.31167 5.32132 5.25879C3.09303 7.20591 1.84118 9.84677 1.84118 12.6004C1.84118 15.3541 3.09303 17.9949 5.32132 19.942C7.54962 21.8891 10.5718 22.983 13.7231 22.983C16.8744 22.983 19.8966 21.8891 22.1249 19.942C24.3532 17.9949 25.6051 15.3541 25.6051 12.6004C25.6051 9.84677 24.3532 7.20591 22.1249 5.25879C19.8966 3.31167 16.8744 2.21779 13.7231 2.21779ZM13.7231 24.4663C10.1217 24.4663 6.66769 23.2161 4.12106 20.9908C1.57444 18.7656 0.143759 15.7474 0.143759 12.6004C0.143759 9.45339 1.57444 6.43526 4.12106 4.20999C6.66769 1.98471 10.1217 0.734558 13.7231 0.734558C17.3246 0.734558 20.7786 1.98471 23.3252 4.20999C25.8718 6.43526 27.3025 9.45339 27.3025 12.6004C27.3025 15.7474 25.8718 18.7656 23.3252 20.9908C20.7786 23.2161 17.3246 24.4663 13.7231 24.4663ZM19.6641 13.342C19.8892 13.342 20.1051 13.2639 20.2642 13.1248C20.4234 12.9857 20.5128 12.7971 20.5128 12.6004C20.5128 12.4037 20.4234 12.2151 20.2642 12.076C20.1051 11.9369 19.8892 11.8588 19.6641 11.8588L9.83094 11.8588L13.4753 8.67578C13.6347 8.53652 13.7242 8.34765 13.7242 8.15071C13.7242 7.95378 13.6347 7.76491 13.4753 7.62565C13.3159 7.48639 13.0998 7.40816 12.8744 7.40816C12.649 7.40816 12.4329 7.48639 12.2735 7.62565L7.18126 12.0753C7.10223 12.1442 7.03952 12.2261 6.99673 12.3162C6.95395 12.4063 6.93192 12.5029 6.93192 12.6004C6.93192 12.698 6.95395 12.7945 6.99673 12.8846C7.03952 12.9747 7.10223 13.0566 7.18126 13.1255L12.2735 17.5752C12.4329 17.7144 12.649 17.7927 12.8744 17.7927C13.0998 17.7927 13.3159 17.7144 13.4753 17.5752C13.6347 17.4359 13.7242 17.247 13.7242 17.0501C13.7242 16.8532 13.6347 16.6643 13.4753 16.525L9.83094 13.342L19.6641 13.342Z" fill="black"/>
</svg>
