<svg width="30" height="30" viewBox="0 0 30 30" fill="none" xmlns="http://www.w3.org/2000/svg">
<path d="M15 0C9.72861 0 5.33203 4.24629 5.33203 9.66797C5.33203 11.7306 5.95184 13.5698 7.14135 15.2933L14.2601 26.4015C14.6055 26.9415 15.3952 26.9405 15.7399 26.4015L22.8895 15.2555C24.0534 13.6102 24.668 11.6781 24.668 9.66797C24.668 4.33705 20.3309 0 15 0ZM15 14.0625C12.577 14.0625 10.6055 12.091 10.6055 9.66797C10.6055 7.24494 12.577 5.27344 15 5.27344C17.423 5.27344 19.3945 7.24494 19.3945 9.66797C19.3945 12.091 17.423 14.0625 15 14.0625Z" fill="#F93A3A"/>
<path d="M21.8709 20.197L17.4453 27.1161C16.2997 28.9022 13.6939 28.8963 12.5538 27.1178L8.12098 20.1988C4.22074 21.1005 1.81641 22.7525 1.81641 24.7265C1.81641 28.1521 8.60906 30 15 30C21.3909 30 28.1836 28.1521 28.1836 24.7265C28.1836 22.7511 25.7759 21.0982 21.8709 20.197Z" fill="#FFED4B"/>
</svg>
