<svg width="25" height="25" viewBox="0 0 25 25" fill="none" xmlns="http://www.w3.org/2000/svg">
<g clip-path="url(#clip0_1_82)">
<circle cx="12.5" cy="12.5" r="12.5" fill="white"/>
<path d="M21.3372 3.65945C16.4549 -1.22136 8.54028 -1.22019 3.65947 3.66214C-1.22134 8.54446 -1.22017 16.459 3.66215 21.3398C8.54448 26.2206 16.459 26.2195 21.3398 21.3371C23.6839 18.9924 25.0004 15.8124 24.9997 12.497C24.999 9.18201 23.6815 6.0031 21.3372 3.65945ZM18.9305 17.412C18.9299 17.4125 18.9294 17.4131 18.9288 17.4137V17.4095L18.2955 18.0387C17.4764 18.8681 16.2834 19.2094 15.1496 18.9387C14.0073 18.6329 12.9213 18.1462 11.933 17.497C11.0147 16.9101 10.1637 16.2241 9.39545 15.4512C8.68857 14.7494 8.05351 13.9789 7.4996 13.1512C6.89374 12.2604 6.4142 11.2901 6.0746 10.2678C5.6853 9.06683 6.0079 7.749 6.90795 6.86365L7.6496 6.122C7.85581 5.91487 8.19086 5.91414 8.39794 6.12034C8.39848 6.12088 8.39907 6.12141 8.3996 6.122L10.7413 8.46365C10.9484 8.66985 10.9491 9.00491 10.7429 9.21199C10.7424 9.21253 10.7418 9.21307 10.7413 9.21365L9.36625 10.5887C8.97172 10.9789 8.92211 11.599 9.2496 12.047C9.74692 12.7295 10.2973 13.3718 10.8955 13.9679C11.5624 14.6377 12.2874 15.247 13.0621 15.7887C13.5097 16.1009 14.1165 16.0483 14.5038 15.6637L15.8329 14.3137C16.0391 14.1066 16.3742 14.1058 16.5812 14.312C16.5818 14.3126 16.5823 14.3131 16.5829 14.3137L18.9288 16.6637C19.1359 16.8699 19.1367 17.2049 18.9305 17.412Z" fill="#47C13C"/>
</g>
<defs>
<clipPath id="clip0_1_82">
<rect width="25" height="25" fill="white"/>
</clipPath>
</defs>
</svg>
