<svg width="8" height="6" viewBox="0 0 8 6" fill="none" xmlns="http://www.w3.org/2000/svg">
<path fill-rule="evenodd" clip-rule="evenodd" d="M0 3C0 2.91161 0.0301 2.82683 0.0836784 2.76433C0.137257 2.70183 0.209925 2.66671 0.285696 2.66671L7.02412 2.66671L5.22595 0.569674C5.17231 0.507092 5.14217 0.422212 5.14217 0.333707C5.14217 0.245203 5.17231 0.160323 5.22595 0.0977402C5.2796 0.0351582 5.35236 0 5.42823 0C5.50409 0 5.57685 0.0351582 5.6305 0.0977402L7.91607 2.76403C7.94267 2.79499 7.96378 2.83177 7.97818 2.87226C7.99259 2.91275 8 2.95616 8 3C8 3.04384 7.99259 3.08725 7.97818 3.12774C7.96378 3.16823 7.94267 3.20501 7.91607 3.23597L5.6305 5.90226C5.57685 5.96484 5.50409 6 5.42823 6C5.35236 6 5.2796 5.96484 5.22595 5.90226C5.17231 5.83968 5.14217 5.7548 5.14217 5.66629C5.14217 5.57779 5.17231 5.49291 5.22595 5.43033L7.02412 3.33329L0.285696 3.33329C0.209925 3.33329 0.137257 3.29817 0.0836784 3.23567C0.0301 3.17317 0 3.08839 0 3Z" fill="black"/>
</svg>
