<svg width="28" height="25" viewBox="0 0 28 25" fill="none" xmlns="http://www.w3.org/2000/svg">
<path fill-rule="evenodd" clip-rule="evenodd" d="M13.7268 22.7294C16.8781 22.7294 19.9003 21.6355 22.1286 19.6884C24.3569 17.7412 25.6088 15.1004 25.6088 12.3467C25.6088 9.59309 24.3569 6.95223 22.1286 5.00512C19.9003 3.058 16.8781 1.96412 13.7268 1.96412C10.5755 1.96412 7.55332 3.058 5.32502 5.00512C3.09673 6.95223 1.84488 9.59309 1.84488 12.3467C1.84488 15.1004 3.09673 17.7412 5.32502 19.6884C7.55332 21.6355 10.5755 22.7294 13.7268 22.7294ZM13.7268 0.480885C17.3283 0.480885 20.7823 1.73103 23.3289 3.95631C25.8755 6.18159 27.3062 9.19972 27.3062 12.3467C27.3062 15.4938 25.8755 18.5119 23.3289 20.7372C20.7823 22.9624 17.3283 24.2126 13.7268 24.2126C10.1254 24.2126 6.67139 22.9624 4.12477 20.7372C1.57814 18.5119 0.147461 15.4938 0.147461 12.3467C0.147461 9.19972 1.57814 6.18159 4.12477 3.95631C6.67139 1.73103 10.1254 0.480885 13.7268 0.480885ZM7.78585 11.6051C7.56076 11.6051 7.34489 11.6833 7.18573 11.8223C7.02656 11.9614 6.93714 12.15 6.93714 12.3467C6.93714 12.5434 7.02656 12.7321 7.18573 12.8711C7.34489 13.0102 7.56076 13.0884 7.78585 13.0884L17.619 13.0884L13.9747 16.2714C13.8153 16.4106 13.7258 16.5995 13.7258 16.7964C13.7258 16.9934 13.8153 17.1822 13.9747 17.3215C14.134 17.4607 14.3502 17.539 14.5755 17.539C14.8009 17.539 15.0171 17.4607 15.1764 17.3215L20.2687 12.8718C20.3477 12.8029 20.4104 12.7211 20.4532 12.631C20.496 12.5409 20.518 12.4443 20.518 12.3467C20.518 12.2492 20.496 12.1526 20.4532 12.0625C20.4104 11.9724 20.3477 11.8906 20.2687 11.8217L15.1764 7.37198C15.0171 7.23272 14.8009 7.15449 14.5755 7.15449C14.3502 7.15449 14.134 7.23272 13.9747 7.37198C13.8153 7.51123 13.7258 7.7001 13.7258 7.89704C13.7258 8.09398 13.8153 8.28285 13.9747 8.4221L17.619 11.6051L7.78585 11.6051Z" fill="black"/>
</svg>
