<svg width="20" height="20" viewBox="0 0 20 20" fill="none" xmlns="http://www.w3.org/2000/svg">
<path d="M19.7337 18.4481L13.5351 12.2495C14.5476 10.9613 15.1522 9.338 15.1522 7.57612C15.1522 3.39861 11.7536 0 7.57606 0C3.39861 0 0 3.39861 0 7.57606C0 11.7535 3.39861 15.1521 7.57606 15.1521C9.33788 15.1521 10.9612 14.5476 12.2495 13.5351L18.4481 19.7337C18.6256 19.9113 18.8582 20 19.0909 20C19.3236 20 19.5562 19.9113 19.7337 19.7337C20.0887 19.3787 20.0887 18.8031 19.7337 18.4481ZM1.81818 7.57606C1.81818 4.40115 4.40115 1.81818 7.57606 1.81818C10.751 1.81818 13.334 4.40115 13.334 7.57606C13.334 10.751 10.751 13.3339 7.57606 13.3339C4.40115 13.3339 1.81818 10.751 1.81818 7.57606Z" fill="black"/>
</svg>
