<svg width="70" height="70" viewBox="0 0 70 70" fill="none" xmlns="http://www.w3.org/2000/svg">
<g clip-path="url(#clip0_5_121)">
<path d="M33.8186 26.6908C34.2747 27.1239 35.033 27.0364 35.3796 26.5135L42.2044 16.2137C42.5173 15.7416 42.3881 15.105 41.916 14.792C41.4444 14.4796 40.8078 14.6088 40.4948 15.0804L34.3446 24.3623L30.9272 21.1174C30.5165 20.7275 29.8676 20.7446 29.4773 21.1553C29.0874 21.566 29.1045 22.2149 29.5152 22.6047C29.5146 22.6047 33.8149 26.6876 33.8186 26.6908Z" fill="#F2994A"/>
<path d="M34.5182 42.3307C34.7142 42.4204 34.9311 42.468 35.1468 42.468H35.1554C35.3749 42.4669 35.5949 42.4167 35.7914 42.3227C51.3838 34.9073 54.0263 18.908 54.4642 14.1811C54.5646 13.1017 53.9569 12.0967 52.9523 11.6801C49.8484 10.3914 47.7383 7.50963 47.4456 4.15949C47.3554 3.12822 46.4742 2.32446 45.436 2.32446H45.4237L24.4171 2.44783C23.358 2.4537 22.4977 3.25853 22.4165 4.3197C22.158 7.67091 20.0789 10.5735 16.9905 11.8948C15.996 12.3199 15.4032 13.3303 15.5165 14.4091C16.0099 19.1307 18.8399 35.0985 34.5182 42.3307ZM17.7969 13.78C21.5839 12.1607 24.1351 8.60552 24.4593 4.49808L45.4055 4.37524C45.7778 8.4736 48.3653 11.9962 52.1662 13.5739C52.336 13.6449 52.4391 13.8126 52.4225 13.992C52.0113 18.422 49.5509 33.3591 35.1431 40.359C20.6525 33.5295 18.0191 18.6212 17.5555 14.196C17.5368 14.0171 17.634 13.85 17.7969 13.78Z" fill="#F2994A"/>
<path d="M20.3572 19.4645C20.4811 19.9205 21.0594 20.3382 21.6159 20.1849C22.1617 20.0343 22.4848 19.473 22.3364 18.9267C22.0752 17.9643 21.8557 16.9886 21.6832 16.0219C24.4689 14.2067 26.5362 11.4974 27.5504 8.33309L42.3587 8.24603C43.4098 11.3975 45.5086 14.0833 48.3156 15.8654C48.1549 16.8348 47.9466 17.8137 47.6961 18.7798C47.554 19.3283 47.8836 19.888 48.4315 20.03C48.9805 20.1721 49.5397 19.8426 49.6817 19.2941C49.9755 18.1598 50.2147 17.0083 50.392 15.8718C50.4914 15.2369 50.2008 14.6125 49.6529 14.2814C47.0381 12.7022 45.1054 10.2247 44.2108 7.30556C44.0095 6.6492 43.3905 6.19312 42.7037 6.19312H42.6941L27.1904 6.28391C26.4994 6.28818 25.8809 6.75334 25.6871 7.41451C24.8272 10.3438 22.9233 12.8437 20.3273 14.4539C19.783 14.7909 19.5005 15.4184 19.6068 16.0529C19.798 17.1867 20.0501 18.3344 20.3572 19.4645Z" fill="#F2994A"/>
<path d="M47.609 22.5049C47.0857 22.2881 46.4865 22.538 46.2702 23.0614C43.9005 28.8047 40.1493 33.1711 35.1174 36.0449C30.0466 33.2267 26.2409 28.8971 23.8045 23.172C23.5823 22.6512 22.9799 22.4088 22.4592 22.6304C21.938 22.8521 21.6955 23.4545 21.9171 23.9752C24.5762 30.2226 28.7653 34.9324 34.3681 37.9728C34.6042 38.1015 34.8627 38.1651 35.1206 38.1651C35.385 38.1651 35.6488 38.0983 35.8891 37.9643C41.4498 34.8619 45.5802 30.111 48.1661 23.8433C48.3824 23.3199 48.133 22.7207 47.609 22.5049Z" fill="#F2994A"/>
<path d="M6.579 54.7935C4.57895 54.7935 2.95114 56.4207 2.95114 58.4213C2.95114 60.4219 4.57895 62.0492 6.579 62.0492C8.57958 62.0492 10.2074 60.4219 10.2074 58.4213C10.2074 56.4207 8.58011 54.7935 6.579 54.7935ZM6.579 59.9984C5.70955 59.9984 5.00192 59.2913 5.00192 58.4213C5.00192 57.5519 5.70955 56.8442 6.579 56.8442C7.44898 56.8442 8.1566 57.5519 8.1566 58.4213C8.1566 59.2913 7.44898 59.9984 6.579 59.9984Z" fill="#F2994A"/>
<path d="M69.2645 44.7547C67.9502 42.8236 65.304 42.312 63.3659 43.614L49.961 52.5856L47.0995 52.4249L47.0264 51.6922C46.7412 48.8227 44.5478 46.5364 41.6927 46.1326C41.6746 46.1299 41.657 46.1278 41.6388 46.1262L27.1947 44.8605C26.706 44.7841 25.1418 44.335 20.8437 41.8698C18.6097 40.5886 16.0927 39.8654 13.5356 39.7672V37.0846C13.5356 35.7383 12.4408 34.6434 11.0944 34.6434H2.44112C1.09529 34.6434 -6.10352e-05 35.7388 -6.10352e-05 37.0846V63.505C-6.10352e-05 64.8508 1.09529 65.9462 2.44112 65.9462H11.0944C12.4403 65.9462 13.5356 64.8508 13.5356 63.505V62.7771L26.1618 67.5585C26.1896 67.5692 27.215 67.9526 29.1002 67.7748C29.1055 67.7742 50.0796 64.7504 50.0796 64.7504C50.0849 64.7499 50.0897 64.7488 50.0951 64.7477C51.8874 64.462 53.5777 63.7042 54.9838 62.5576C54.9966 62.5469 55.0089 62.5362 55.0212 62.5255L68.5708 50.3389C70.1676 48.9209 70.4662 46.5203 69.2645 44.7547ZM67.2041 48.8098L53.669 60.9837C52.5485 61.8921 51.2038 62.4929 49.7789 62.7215L28.815 65.7438C28.8102 65.7443 28.8033 65.7454 28.7969 65.7464C28.7936 65.747 28.7899 65.7475 28.7867 65.748C28.1597 65.8468 27.5066 65.8052 26.8449 65.6241L13.5356 60.5842V48.8739C13.5356 48.3073 13.0763 47.8485 12.5102 47.8485C11.9436 47.8485 11.4848 48.3073 11.4848 48.8739V63.505C11.4848 63.7202 11.3097 63.8954 11.0944 63.8954H2.44112C2.22589 63.8954 2.05072 63.7202 2.05072 63.505V37.0846C2.05072 36.8694 2.22589 36.6942 2.44112 36.6942H11.0944C11.3097 36.6942 11.4848 36.8694 11.4848 37.0846V44.2421C11.4848 44.8087 11.9441 45.2674 12.5102 45.2674C13.0769 45.2674 13.5356 44.8082 13.5356 44.2421V41.8201C15.7354 41.9173 17.8994 42.5454 19.8231 43.6492C25.0072 46.6223 26.455 46.8274 26.9309 46.8947C26.949 46.8974 26.9666 46.899 26.9848 46.9011L41.4305 48.1668C43.335 48.4483 44.7951 49.9778 44.9857 51.8951L45.0402 52.4414L25.7004 53.6356C25.687 53.6345 25.6737 53.6335 25.6619 53.6324C25.035 53.5758 24.4689 53.2794 24.0667 52.7977C23.7041 52.3624 23.0573 52.3037 22.6226 52.6668C22.1874 53.0294 22.1286 53.6762 22.4918 54.1109C23.2443 55.0135 24.306 55.5534 25.4793 55.6752C26.1127 55.7414 46.1681 54.4265 46.1681 54.4265L50.1885 54.6524C50.4107 54.6653 50.6313 54.6044 50.816 54.4805L64.5082 45.3171C65.5138 44.6415 66.8869 44.9064 67.5689 45.9083C68.1921 46.8248 68.0373 48.0702 67.2041 48.8098Z" fill="#F2994A"/>
</g>
<defs>
<clipPath id="clip0_5_121">
<rect width="70" height="70" fill="white" transform="translate(-6.10352e-05 0.000244141)"/>
</clipPath>
</defs>
</svg>
