<svg width="70" height="70" viewBox="0 0 70 70" fill="none" xmlns="http://www.w3.org/2000/svg">
<g clip-path="url(#clip0_5_56)">
<path d="M50.039 54.1409C49.2843 54.1409 48.6718 54.7534 48.6718 55.5081C48.6718 56.2627 49.2843 56.8752 50.039 56.8752C50.7937 56.8752 51.4062 56.2627 51.4062 55.5081C51.4062 54.7534 50.7937 54.1409 50.039 54.1409Z" fill="black"/>
<path d="M53.4053 49.7198L46.9071 47.5542L44.5742 42.8884C46.6759 40.7493 48.1351 37.9189 48.6271 34.9667L48.918 33.2229H51.4062C53.6678 33.2229 55.5078 31.3829 55.5078 29.1213V20.5081C55.5078 9.20005 46.3079 0.000244141 34.9999 0.000244141C23.6629 0.000244141 14.4921 9.17366 14.4921 20.5081V29.1213C14.4921 30.9036 15.6352 32.4234 17.2265 32.9877V34.5901C17.2265 36.8517 19.0665 38.6917 21.3281 38.6917H22.5287C23.1214 39.9791 23.8885 41.1716 24.822 42.2428C25.0156 42.4654 25.2176 42.6811 25.4244 42.891L23.0928 47.5542L16.5945 49.7199C9.03869 52.2394 3.55463 60.1935 3.55463 68.6331C3.55463 69.3882 4.16672 70.0002 4.92181 70.0002H65.0781C65.833 70.0002 66.4453 69.3882 66.4453 68.6331C66.4453 60.1935 60.9613 52.2394 53.4053 49.7198ZM52.7734 29.1213C52.7734 29.8752 52.1601 30.4885 51.4062 30.4885H49.3196C49.6671 27.7965 49.8987 24.9319 49.9918 22.1104C49.9946 22.0308 49.9968 21.9534 49.9992 21.8752H52.7734V29.1213ZM18.5937 30.4885C17.8398 30.4885 17.2265 29.8752 17.2265 29.1213V21.8752H20.0016C20.0061 22.0178 20.0109 22.1611 20.0162 22.3054C20.0164 22.3103 20.0167 22.3151 20.0168 22.32C20.0168 22.3204 20.0168 22.3208 20.0168 22.3212C20.1125 25.0654 20.3411 27.8557 20.6807 30.4884H18.5937V30.4885ZM21.3281 35.9573C20.5742 35.9573 19.9609 35.344 19.9609 34.5901V33.2229H21.0817L21.3726 34.9673C21.4281 35.2988 21.4964 35.6292 21.5753 35.9573H21.3281ZM19.9632 19.1409H17.2785C17.9709 9.97784 25.6179 2.73462 34.9999 2.73462C44.3403 2.73462 52.0209 9.97688 52.7213 19.1409H50.0368C49.9384 11.5903 43.7897 5.46899 36.2237 5.46899H33.7764C26.2106 5.46899 20.0615 11.5903 19.9632 19.1409ZM33.7763 8.20337H36.2236C42.3498 8.20337 47.3082 13.2142 47.3046 19.3336C47.3046 19.7639 47.3012 20.1385 47.294 20.4793C47.294 20.4837 47.2938 20.4882 47.2938 20.4927L45.5837 20.2484C40.938 19.5851 36.5516 17.3918 33.2323 14.0726C32.9758 13.8162 32.6281 13.6721 32.2656 13.6721C28.5938 13.6721 25.0791 15.345 22.7557 18.1713C23.3283 12.6042 28.0345 8.20337 33.7763 8.20337ZM24.4097 35.9573C23.7253 33.6805 22.9422 26.9813 22.7691 22.6883L24.6092 20.2348C26.2992 17.9822 28.9284 16.5826 31.7253 16.4219C35.4053 19.9241 40.1661 22.2369 45.1971 22.9552L47.2099 23.2428C47.0754 26.0982 46.8004 28.9636 46.4065 31.5988C46.4064 31.5996 46.4062 31.6006 46.4061 31.6016C46.2809 32.4488 46.1822 32.994 45.9301 34.5169C45.206 38.8598 41.9655 42.7871 37.6877 43.8566C35.9272 44.2962 34.0724 44.296 32.3129 43.8566C29.6418 43.1889 27.1926 41.3407 25.612 38.6917H28.3992C28.9635 40.2829 30.4832 41.426 32.2656 41.426H34.9999C37.2661 41.426 39.1015 39.5907 39.1015 37.3245C39.1015 35.0629 37.2615 33.2229 34.9999 33.2229H32.2656C30.4435 33.2229 28.9463 34.3998 28.3968 35.9573H24.4097ZM32.1506 46.6235C33.0883 46.8211 34.0444 46.9221 34.9999 46.9221C35.7479 46.9221 36.4961 46.8595 37.2357 46.7381L34.8199 49.293L32.1506 46.6235ZM32.9403 51.2806L28.6038 55.8664C27.41 53.5813 26.3842 51.2031 25.5428 48.7684L27.1713 45.5115L32.9403 51.2806ZM42.5969 45.0483L44.4568 48.7682C43.614 51.207 42.588 53.5861 41.3954 55.8684L36.754 51.2271L42.5969 45.0483ZM30.8984 37.3245C30.8984 36.5696 31.5106 35.9573 32.2656 35.9573H34.9999C35.7538 35.9573 36.3671 36.5706 36.3671 37.3245C36.3671 38.0794 35.7548 38.6917 34.9999 38.6917H32.2656C31.5117 38.6917 30.8984 38.0783 30.8984 37.3245ZM6.34369 67.2659C6.88551 60.493 11.393 54.3368 17.4592 52.3139L23.2142 50.396C24.2686 53.3115 25.5748 56.1453 27.1057 58.837C27.1083 58.8417 27.1107 58.8463 27.1133 58.8508C27.1133 58.851 27.1135 58.851 27.1135 58.8511C28.232 60.8183 29.4909 62.7408 30.8557 64.5658L32.5376 67.2659H6.34369ZM34.9999 66.0472L33.1458 63.0704C33.125 63.037 33.1028 63.0046 33.0793 62.9732C31.9722 61.4963 30.9394 59.9518 29.9988 58.3709L34.8746 53.2147L40.0122 58.3524C39.0653 59.9447 38.0289 61.4957 36.9208 62.9729C36.8538 63.0622 36.9489 62.9215 34.9999 66.0472ZM37.4622 67.2659L39.144 64.5659C40.5149 62.7339 41.7828 60.7961 42.9125 58.8057C42.9194 58.7937 42.9258 58.7814 42.9326 58.7693C42.9335 58.7678 42.9343 58.7665 42.9351 58.765C44.4465 56.099 45.7391 53.2898 46.7856 50.396L52.5405 52.3139C58.6069 54.3368 63.1144 60.493 63.6562 67.2659H37.4622Z" fill="#F2994A"/>
<path d="M59.5472 61.733C58.6336 59.9041 57.2952 58.2793 55.6769 57.0344C55.0783 56.5738 54.22 56.6857 53.7597 57.2843C53.2992 57.8829 53.4112 58.7412 54.0096 59.2016C55.3021 60.196 56.371 61.4939 57.1009 62.955C57.439 63.6316 58.2607 63.9039 58.935 63.5671C59.6104 63.2296 59.8845 62.4085 59.5472 61.733Z" fill="black"/>
</g>
<defs>
<clipPath id="clip0_5_56">
<rect width="70" height="70" fill="white" transform="translate(-6.10352e-05 0.000244141)"/>
</clipPath>
</defs>
</svg>
