<svg width="25" height="25" viewBox="0 0 25 25" fill="none" xmlns="http://www.w3.org/2000/svg">
<path d="M12.5001 6.25C11.7275 6.25 10.9723 6.4791 10.3299 6.90832C9.68755 7.33755 9.18687 7.94762 8.89122 8.66139C8.59556 9.37517 8.51821 10.1606 8.66893 10.9183C8.81965 11.6761 9.19169 12.3721 9.73799 12.9184C10.2843 13.4647 10.9803 13.8367 11.7381 13.9874C12.4958 14.1382 13.2812 14.0608 13.995 13.7652C14.7088 13.4695 15.3188 12.9688 15.7481 12.3264C16.1773 11.6841 16.4064 10.9288 16.4064 10.1563C16.4064 9.12025 15.9948 8.12668 15.2623 7.39411C14.5297 6.66155 13.5361 6.25 12.5001 6.25Z" fill="#F2994A"/>
<path d="M12.5001 1.5625C10.3369 1.5625 8.22224 2.20397 6.42358 3.4058C4.62491 4.60763 3.22303 6.31583 2.39519 8.3144C1.56736 10.313 1.35076 12.5121 1.77279 14.6338C2.19481 16.7555 3.23651 18.7043 4.76615 20.234C6.29578 21.7636 8.24466 22.8053 10.3663 23.2273C12.488 23.6494 14.6872 23.4328 16.6857 22.6049C18.6843 21.7771 20.3925 20.3752 21.5943 18.5765C22.7962 16.7779 23.4376 14.6632 23.4376 12.5C23.4343 9.60021 22.2809 6.82014 20.2305 4.76967C18.18 2.71921 15.3999 1.56581 12.5001 1.5625ZM18.7439 19.4734C18.7283 18.4487 18.3108 17.4711 17.5813 16.7512C16.8518 16.0314 15.8687 15.6269 14.8439 15.625H10.1564C9.13152 15.6269 8.14844 16.0314 7.41895 16.7512C6.68946 17.4711 6.27195 18.4487 6.25638 19.4734C4.83963 18.2084 3.84054 16.5429 3.3914 14.6974C2.94227 12.8519 3.06427 10.9135 3.74125 9.13895C4.41823 7.36436 5.61827 5.83724 7.18245 4.75982C8.74663 3.6824 10.6012 3.10549 12.5005 3.10549C14.3999 3.10549 16.2544 3.6824 17.8186 4.75982C19.3828 5.83724 20.5828 7.36436 21.2598 9.13895C21.9368 10.9135 22.0588 12.8519 21.6096 14.6974C21.1605 16.5429 20.1614 18.2084 18.7447 19.4734H18.7439Z" fill="#F2994A"/>
</svg>
