<svg width="951" height="664" viewBox="0 0 951 664" fill="none" xmlns="http://www.w3.org/2000/svg">
<path fill-rule="evenodd" clip-rule="evenodd" d="M1281.19 628.264L1241.69 639.683C1202.19 651.103 1123.18 673.942 1057.83 658.091C993.284 642.546 943.199 588.615 893.113 534.685C843.027 480.755 792.13 426.519 736.261 387.942C680.392 349.366 618.739 326.143 548.412 325.952C478.084 325.76 398.271 348.294 327.943 348.102C257.616 347.911 195.963 324.688 142.986 278.435C89.197 231.876 44.8946 162.591 22.7434 127.949L0.592247 93.3071L154.89 96.3898L271.101 127.009C301.927 138.62 287.987 79.044 350.451 102.572C412.103 125.795 396.416 -20.5844 458.068 2.63809C519.721 25.8606 582.185 49.3886 643.837 72.6111C705.489 95.8336 767.142 119.056 828.794 142.279C890.447 165.501 952.911 189.029 1014.56 212.252C1076.22 235.474 1137.87 258.697 1199.52 281.919C1261.98 305.447 1323.64 328.67 1354.46 340.281L1385.29 351.892L1281.19 628.264Z" fill="#FF7E0C" fill-opacity="0.52"/>
</svg>
