<svg width="986" height="679" viewBox="0 0 986 679" fill="none" xmlns="http://www.w3.org/2000/svg">
<path fill-rule="evenodd" clip-rule="evenodd" d="M-249.873 22.7559L-209.608 14.4201C-169.343 6.08423 -88.8125 -10.5874 -24.8761 10.2622C38.2752 30.7446 84.0476 88.381 129.82 146.017C175.593 203.654 222.15 261.658 274.874 304.432C327.598 347.207 387.274 375.12 457.376 380.741C527.479 386.362 608.794 370.058 678.897 375.678C749 381.299 808.676 409.212 857.924 459.418C907.957 509.991 946.778 582.489 966.189 618.738L985.599 654.987L832 640.001L718.5 600.5C688.662 586.544 675.461 702.781 615 674.5C555.325 646.587 524.175 693.413 464.5 665.5C404.824 637.587 402.352 653.871 342.676 625.958C283.001 598.045 223.325 570.132 163.65 542.218C103.974 514.305 43.5137 486.025 -16.1618 458.111C-75.8373 430.198 -135.513 402.285 -195.188 374.372C-255.649 346.091 -315.324 318.178 -345.162 304.222L-375 290.265L-249.873 22.7559Z" fill="#F2994A" fill-opacity="0.52"/>
</svg>
