<svg width="30" height="30" viewBox="0 0 30 30" fill="none" xmlns="http://www.w3.org/2000/svg">
<path d="M15 0C6.7292 0 0 6.72885 0 15C0 23.2712 6.7292 30 15 30C23.2712 30 30 23.2712 30 15C30 6.72885 23.2708 0 15 0ZM15 27.8102C7.93652 27.8102 2.18977 22.0635 2.18977 15C2.18977 7.93652 7.93652 2.18977 15 2.18977C22.0635 2.18977 27.8102 7.93647 27.8102 14.9996C27.8102 22.0635 22.0635 27.8102 15 27.8102Z" fill="#F2994A"/>
<path d="M20.1095 15H15.365V8.43065C15.365 7.82591 14.8748 7.33577 14.2701 7.33577C13.6653 7.33577 13.1752 7.82591 13.1752 8.43065V16.0949C13.1752 16.6996 13.6653 17.1898 14.2701 17.1898H20.1095C20.7142 17.1898 21.2044 16.6996 21.2044 16.0949C21.2044 15.4901 20.7142 15 20.1095 15Z" fill="#F2994A"/>
</svg>
